<?xml version="1.0" standalone="no"?>
<!DOCTYPE svg PUBLIC "-//W3C//DTD SVG 20010904//EN"
 "http://www.w3.org/TR/2001/REC-SVG-20010904/DTD/svg10.dtd">
<svg version="1.0" xmlns="http://www.w3.org/2000/svg"
 width="2690.000000pt" height="2690.000000pt" viewBox="0 0 2690.000000 2690.000000"
 preserveAspectRatio="xMidYMid meet">
<metadata>
Created by potrace 1.14, written by Peter Selinger 2001-2017
</metadata>
<g transform="translate(0.000000,2690.000000) scale(0.100000,-0.100000)"
fill="#000000" stroke="none">
<path d="M13097 22134 c-1 -1 -65 -5 -142 -8 -256 -11 -329 -17 -341 -27 -8
-7 -14 -6 -19 1 -3 6 -10 8 -15 5 -5 -3 -49 -8 -97 -11 -48 -3 -90 -7 -94 -10
-4 -2 -36 -6 -71 -9 -34 -3 -72 -7 -83 -9 -11 -2 -49 -7 -85 -11 -125 -15
-192 -25 -200 -30 -4 -2 -29 -7 -56 -10 -65 -9 -364 -64 -373 -69 -3 -2 -27
-7 -51 -11 -25 -3 -79 -15 -120 -25 -41 -10 -88 -22 -105 -26 -16 -4 -32 -8
-35 -9 -3 -1 -31 -7 -62 -15 -32 -7 -58 -17 -58 -21 0 -5 -7 -6 -15 -3 -8 3
-20 2 -27 -2 -7 -5 -17 -9 -23 -10 -84 -16 -549 -159 -655 -202 -34 -14 -63
-25 -75 -27 -22 -6 -330 -128 -335 -134 -3 -3 -12 -7 -20 -9 -8 -2 -28 -10
-45 -17 -47 -22 -110 -48 -115 -49 -3 -1 -30 -13 -60 -27 -30 -14 -98 -46
-150 -70 -150 -70 -408 -202 -548 -281 -23 -14 -39 -28 -35 -33 5 -4 3 -5 -3
-2 -6 4 -37 -9 -69 -28 -31 -19 -59 -35 -62 -35 -2 0 -29 -16 -59 -35 -30 -19
-59 -35 -64 -35 -6 0 -10 -4 -10 -10 0 -5 -4 -10 -9 -10 -9 0 -135 -79 -158
-99 -7 -6 -15 -11 -18 -11 -14 0 -327 -218 -333 -232 -2 -5 -8 -8 -13 -8 -5 0
-44 -26 -87 -57 -87 -66 -80 -60 -187 -144 -106 -83 -104 -82 -124 -99 -9 -8
-39 -33 -66 -55 -28 -22 -55 -44 -61 -50 -6 -5 -35 -30 -65 -55 -29 -25 -64
-55 -77 -67 -12 -13 -24 -23 -26 -23 -12 0 -104 -99 -98 -104 4 -4 2 -7 -3 -5
-17 4 -45 -13 -45 -27 0 -8 -5 -14 -11 -14 -10 0 -76 -62 -223 -206 -131 -130
-360 -377 -461 -499 -28 -33 -56 -66 -63 -74 -11 -12 -109 -132 -135 -166 -4
-5 -19 -23 -32 -38 -14 -16 -22 -33 -19 -39 4 -6 2 -8 -3 -5 -6 4 -19 -5 -29
-20 -9 -15 -28 -39 -41 -53 -13 -14 -23 -28 -23 -33 0 -4 -13 -22 -30 -40 -16
-18 -30 -35 -30 -38 0 -3 -25 -38 -55 -79 -30 -40 -52 -77 -48 -83 3 -6 2 -7
-3 -4 -5 3 -34 -31 -64 -76 -30 -45 -57 -84 -61 -87 -4 -3 -9 -12 -11 -20 -2
-8 -11 -21 -21 -28 -9 -7 -15 -18 -12 -23 4 -5 2 -9 -4 -9 -5 0 -12 -8 -15
-18 -4 -10 -14 -27 -25 -38 -10 -11 -24 -32 -32 -46 -12 -24 -70 -119 -137
-226 -12 -21 -25 -44 -29 -52 -3 -8 -14 -26 -23 -40 -39 -57 -70 -122 -64
-133 4 -7 4 -9 -1 -5 -5 5 -17 -6 -27 -23 -41 -67 -299 -586 -303 -609 0 -3
-9 -20 -18 -37 -10 -18 -15 -33 -11 -33 4 0 2 -6 -3 -12 -9 -12 -56 -119 -118
-268 -43 -105 -47 -119 -39 -132 4 -7 3 -10 -1 -5 -5 4 -19 -19 -32 -50 -25
-61 -163 -470 -181 -538 -6 -22 -15 -51 -19 -65 -4 -14 -7 -27 -8 -30 0 -3 -7
-22 -14 -43 -7 -21 -10 -45 -7 -53 3 -9 1 -12 -4 -9 -6 3 -11 -1 -11 -9 -2
-19 -4 -26 -12 -46 -4 -8 -9 -26 -11 -40 -5 -24 -32 -134 -43 -175 -3 -11 -6
-30 -7 -42 0 -13 -4 -23 -7 -23 -3 0 -6 -6 -6 -12 -1 -7 -13 -66 -27 -131 -15
-65 -24 -123 -21 -128 4 -5 2 -9 -3 -9 -5 0 -12 -17 -15 -37 -13 -83 -18 -109
-23 -133 -3 -14 -8 -38 -11 -55 -2 -16 -10 -68 -18 -115 -8 -47 -16 -107 -20
-135 -3 -27 -8 -59 -10 -70 -2 -11 -7 -42 -10 -70 -3 -27 -8 -51 -10 -54 -2
-2 0 -13 6 -24 6 -11 7 -17 1 -13 -5 3 -12 -25 -16 -67 -4 -39 -9 -88 -11
-107 -2 -19 -6 -66 -9 -104 -4 -37 -8 -72 -11 -76 -3 -5 -1 -11 5 -15 6 -4 7
-12 3 -18 -8 -14 -10 -29 -19 -227 -18 -401 -3 -993 32 -1270 3 -25 7 -63 9
-85 5 -61 15 -143 25 -210 10 -65 23 -173 23 -192 0 -7 3 -13 6 -13 4 0 7 -12
8 -27 2 -38 31 -217 48 -293 4 -14 8 -36 11 -50 5 -25 30 -145 44 -210 20 -93
45 -193 67 -275 14 -49 27 -102 30 -117 3 -16 10 -25 16 -21 6 3 7 1 3 -6 -7
-11 2 -49 56 -226 32 -106 104 -323 121 -365 6 -14 11 -30 12 -36 9 -38 49
-133 55 -129 5 3 6 -5 2 -17 -4 -16 -2 -19 8 -13 8 5 11 4 7 -2 -9 -14 14 -83
26 -76 6 4 7 1 2 -6 -4 -7 0 -27 8 -44 8 -18 27 -61 42 -97 15 -36 35 -83 44
-105 10 -22 28 -66 41 -97 13 -31 28 -54 33 -51 6 3 7 1 3 -5 -6 -9 48 -141
74 -182 6 -8 13 -22 16 -30 8 -17 61 -127 74 -150 4 -8 13 -27 20 -42 7 -15
18 -25 23 -21 6 3 7 1 3 -6 -7 -11 90 -203 106 -209 4 -2 8 -8 8 -14 0 -16
140 -258 149 -258 4 0 8 -6 8 -12 0 -16 142 -242 154 -246 5 -2 9 -8 9 -13 0
-9 86 -142 149 -229 17 -25 46 -66 62 -92 17 -27 35 -48 40 -48 5 0 9 -5 9
-10 0 -6 25 -43 56 -83 31 -39 70 -91 87 -115 17 -23 37 -40 44 -38 7 3 10 -1
7 -9 -3 -8 17 -42 46 -77 83 -101 133 -161 160 -190 14 -16 36 -42 50 -59 14
-17 36 -43 50 -58 14 -15 63 -69 110 -121 99 -111 449 -461 569 -570 46 -41
89 -80 95 -85 16 -16 214 -184 271 -230 26 -22 64 -51 84 -65 20 -14 42 -33
49 -42 7 -10 18 -18 23 -18 5 0 20 -9 32 -21 29 -27 282 -214 327 -242 19 -11
37 -24 40 -27 24 -30 567 -370 590 -370 6 0 10 -3 10 -8 0 -4 39 -27 88 -52
48 -25 89 -48 92 -51 15 -18 363 -189 372 -183 6 4 8 3 5 -3 -6 -10 28 -27
288 -143 139 -63 269 -117 310 -130 22 -7 45 -16 50 -20 6 -3 39 -17 75 -29
36 -12 74 -26 85 -32 44 -20 108 -39 116 -33 5 3 9 1 9 -4 0 -13 157 -65 171
-56 7 4 10 3 6 -2 -3 -5 36 -22 86 -37 51 -16 115 -35 142 -44 28 -8 55 -16
60 -18 45 -10 73 -18 90 -25 22 -9 311 -83 335 -85 8 -1 33 -7 55 -13 22 -6
51 -13 65 -16 93 -18 132 -26 138 -30 4 -2 25 -7 47 -10 73 -12 100 -17 115
-21 19 -5 109 -18 133 -19 9 0 17 -4 17 -8 0 -4 3 -7 8 -6 6 2 101 -9 142 -17
8 -1 42 -6 75 -10 32 -4 68 -9 79 -11 11 -2 38 -6 61 -10 22 -3 42 -7 44 -9 1
-2 14 0 28 6 17 6 22 6 17 -2 -4 -7 7 -10 32 -9 22 1 41 1 44 0 16 -5 53 -10
115 -15 39 -3 88 -8 110 -10 50 -6 239 -16 365 -20 52 -1 100 -4 105 -5 6 -1
15 -1 20 0 6 1 35 1 65 0 146 -5 187 -5 207 2 13 4 25 3 28 -3 4 -5 14 -7 23
-5 10 3 98 8 197 11 99 3 212 7 250 10 142 10 211 15 258 20 96 10 153 16 177
20 14 2 52 6 85 10 33 3 71 7 85 10 14 2 45 7 70 10 25 3 70 10 100 15 30 5
71 11 90 14 19 3 46 8 60 10 14 3 54 10 90 16 55 9 454 93 485 103 6 2 47 11
93 22 45 10 82 23 82 27 0 5 4 7 10 3 5 -3 49 6 97 20 48 15 97 28 108 31 32
8 37 9 115 33 41 13 75 22 75 20 0 -1 10 3 23 10 13 7 31 14 40 16 27 6 174
55 186 63 6 3 16 7 23 8 37 6 112 37 108 45 -4 5 1 6 10 3 8 -4 22 -1 30 6 8
7 15 10 15 7 0 -5 51 14 140 51 14 5 50 20 80 32 30 11 64 25 75 30 11 5 69
30 130 55 60 26 112 50 115 53 3 4 12 8 20 10 8 1 42 15 75 31 33 16 100 48
148 70 48 23 85 46 82 51 -3 5 0 7 8 4 13 -4 109 42 247 119 30 17 71 39 90
50 19 10 44 24 55 30 11 7 40 24 64 37 24 14 51 30 60 35 175 106 210 129 204
138 -4 6 -1 7 6 2 8 -4 25 1 42 14 15 11 32 21 37 21 5 0 17 9 27 20 10 11 22
20 26 20 17 0 147 95 141 104 -3 5 0 6 7 1 7 -4 22 1 34 12 12 11 60 46 107
78 47 32 87 62 88 67 2 4 10 8 18 8 8 0 14 4 14 10 0 5 12 16 28 24 15 8 36
23 47 33 11 10 38 30 60 45 22 15 55 41 73 58 18 16 37 30 42 30 4 0 10 3 12
8 2 4 23 23 48 42 46 36 92 74 120 100 8 8 31 27 50 41 19 15 59 48 88 75 28
27 68 62 87 78 19 15 32 32 29 37 -3 5 -1 8 5 7 26 -7 449 412 692 687 24 27
50 56 57 63 7 8 9 18 6 24 -4 6 -3 8 3 5 5 -3 21 7 34 23 13 17 34 42 47 57
60 73 87 105 157 193 41 52 79 100 83 105 4 6 35 47 70 93 35 45 61 82 58 82
-3 0 6 12 20 28 57 61 415 615 512 792 13 25 33 60 44 77 11 18 16 38 12 44
-4 7 -3 9 3 6 6 -4 34 39 63 96 29 56 73 140 97 186 24 46 42 86 39 88 -3 3 2
12 10 20 8 8 12 19 9 24 -4 5 -1 9 5 9 6 0 14 10 19 22 9 24 41 95 92 205 16
34 38 84 48 111 11 27 29 69 40 93 17 37 83 204 86 219 1 3 5 13 9 22 4 9 4
22 0 29 -4 7 -3 9 4 5 7 -4 15 7 21 26 9 30 59 171 74 208 27 69 67 206 63
217 -3 8 -2 12 3 9 8 -5 37 81 67 199 7 28 22 82 33 120 12 39 23 79 26 90 2
11 6 29 9 40 20 75 26 107 21 115 -3 4 -1 10 3 12 7 2 52 174 67 258 11 58 45
237 50 260 5 26 44 266 50 313 2 15 6 44 9 65 6 44 12 96 22 177 3 33 8 71 10
85 2 14 6 63 9 110 4 47 9 87 11 89 2 2 -2 11 -9 19 -9 13 -9 14 1 8 9 -5 12
9 13 61 1 37 3 82 4 98 10 102 8 144 -5 161 -14 17 -13 18 1 6 15 -11 17 -9
17 15 1 195 0 644 -1 666 0 15 -5 27 -10 27 -5 0 -5 5 0 13 6 6 9 21 7 32 -2
11 -6 63 -8 115 -7 116 -13 200 -22 305 -3 44 -7 86 -7 93 0 6 -3 12 -7 12 -3
0 -5 12 -5 28 1 15 -2 56 -6 92 -5 36 -10 81 -12 100 -4 32 -9 72 -23 170 -10
78 -26 166 -31 180 -4 8 -6 18 -5 21 2 10 -28 171 -35 189 -3 8 -7 29 -9 45
-1 17 -5 40 -8 53 -7 25 -10 39 -21 97 -5 22 -9 42 -10 45 -1 3 -7 33 -15 68
-7 34 -16 62 -20 62 -5 0 -7 8 -6 18 3 15 -17 103 -32 142 -7 21 -7 18 -21 85
-7 33 -16 65 -19 70 -4 6 -8 19 -9 30 -2 11 -11 43 -20 70 -10 28 -18 52 -18
55 -1 3 -5 16 -9 30 -88 279 -109 340 -117 340 -6 0 -8 4 -4 9 5 9 -76 241
-116 328 -10 24 -19 45 -19 48 0 6 -76 186 -110 260 -15 33 -38 83 -50 110
-53 119 -174 361 -182 366 -5 3 -9 8 -7 10 4 8 -13 49 -21 49 -5 0 -11 13 -15
30 -4 16 -11 33 -17 36 -5 3 -18 25 -28 48 -11 22 -27 55 -37 71 -10 17 -33
57 -52 90 -19 33 -39 63 -44 66 -5 3 -8 9 -8 13 3 15 -31 66 -39 61 -6 -3 -7
0 -4 8 3 8 -2 21 -10 30 -9 9 -16 18 -16 21 0 18 -93 155 -102 150 -7 -4 -8
-2 -4 5 10 16 -181 304 -196 295 -7 -4 -8 -3 -4 4 9 15 -18 55 -29 44 -5 -4
-5 -2 -2 5 4 6 1 17 -6 25 -7 7 -22 27 -33 43 -29 47 -127 175 -151 201 -7 7
-13 15 -13 19 0 5 -187 244 -200 255 -3 3 -30 34 -59 69 -29 35 -58 70 -64 76
-7 6 -37 40 -67 75 -30 35 -82 92 -115 127 -33 35 -82 88 -109 117 -28 30 -54
52 -60 49 -5 -3 -6 -2 -3 4 7 10 -258 272 -429 423 -21 19 -74 66 -117 104
-42 38 -77 66 -77 63 0 -3 -15 9 -32 27 -60 59 -289 236 -299 230 -5 -3 -8 -1
-7 5 3 8 -32 36 -228 181 -23 16 -46 30 -52 30 -7 0 -12 4 -12 8 0 5 -24 24
-52 42 -29 19 -55 37 -58 40 -8 10 -143 95 -149 94 -3 0 -12 6 -19 13 -8 7
-18 10 -24 7 -6 -4 -8 -2 -5 4 6 9 -45 45 -115 81 -16 7 -28 17 -28 22 0 5 -4
9 -9 9 -6 0 -39 18 -75 41 -37 23 -70 38 -77 33 -8 -4 -9 -3 -5 5 4 6 0 14
-11 18 -10 4 -35 17 -55 30 -20 12 -65 38 -100 56 -35 19 -81 44 -103 57 -50
28 -321 164 -435 218 -127 60 -161 73 -173 65 -5 -3 -7 -1 -4 4 7 10 -13 20
-183 88 -36 15 -80 33 -98 41 -18 8 -37 12 -44 8 -6 -4 -8 -3 -5 3 3 5 -33 23
-81 40 -48 17 -139 50 -202 73 -192 69 -299 102 -312 94 -6 -4 -8 -3 -5 3 4 7
-24 19 -71 33 -42 12 -90 25 -107 30 -16 5 -46 13 -65 19 -101 29 -479 121
-503 123 -16 1 -31 6 -34 11 -2 4 -12 2 -21 -5 -9 -7 -13 -8 -9 -2 6 11 -76
31 -198 50 -16 3 -50 9 -75 14 -62 13 -230 40 -282 45 -24 3 -52 7 -64 9 -25
5 -115 17 -164 21 -102 10 -155 17 -162 21 -4 3 -8 -1 -8 -8 0 -8 -3 -9 -8 -3
-4 6 -18 11 -32 12 -14 1 -54 5 -90 8 -283 25 -800 39 -800 20 0 -5 -4 -5 -8
2 -8 13 -29 13 -49 0 -7 -5 -13 -4 -13 0 0 7 -86 13 -93 7z m-4123 -2112 c3
-5 -1 -9 -9 -9 -8 0 -12 4 -9 9 3 4 7 8 9 8 2 0 6 -4 9 -8z m-2407 -2087 c0
-8 -4 -12 -9 -9 -5 3 -6 10 -3 15 9 13 12 11 12 -6z m5601 -960 c-3 -3 -9 2
-12 12 -6 14 -5 15 5 6 7 -7 10 -15 7 -18z m4963 -312 c13 -16 12 -17 -3 -4
-17 13 -22 21 -14 21 2 0 10 -8 17 -17z m3833 -1293 c-6 -6 -10 -3 -10 10 0
13 4 16 10 10 7 -7 7 -13 0 -20z m-5921 -2545 c-3 -9 -8 -14 -10 -11 -3 3 -2
9 2 15 9 16 15 13 8 -4z m-8633 -2401 c0 -8 -19 -13 -24 -6 -3 5 1 9 9 9 8 0
15 -2 15 -3z m14561 -161 c13 -16 12 -17 -3 -4 -17 13 -22 21 -14 21 2 0 10
-8 17 -17z m-9477 -5441 c3 -5 -1 -9 -9 -9 -8 0 -12 4 -9 9 3 4 7 8 9 8 2 0 6
-4 9 -8z"/>
</g>
</svg>
